<svg viewBox="0 0 151 37" fill="none"
  xmlns="http://www.w3.org/2000/svg">
  <path fill-rule="evenodd" clip-rule="evenodd" d="M16.4266 0.0184273C16.4266 0.0481546 16.4746 0.113544 16.4963 0.113544C16.5062 0.113544 16.5143 0.121788 16.5143 0.131845C16.5143 0.141915 16.5309 0.160088 16.5512 0.172225C16.5715 0.184362 16.5852 0.198947 16.5817 0.204641C16.5783 0.210348 16.581 0.215003 16.5878 0.215003C16.5947 0.215003 16.6037 0.226125 16.608 0.239721C16.6123 0.253316 16.6264 0.267875 16.6395 0.272073C16.653 0.276423 16.6604 0.287203 16.6567 0.297082C16.6525 0.308167 16.6606 0.315954 16.6793 0.318617C16.7007 0.321699 16.7095 0.332301 16.7124 0.35868C16.7154 0.384501 16.7218 0.392504 16.7353 0.387241C16.7547 0.379695 16.7898 0.406454 16.7898 0.428839C16.7898 0.435839 16.801 0.445199 16.8148 0.449625C16.8286 0.454051 16.8399 0.468699 16.8399 0.48218C16.8399 0.497957 16.8485 0.506695 16.8641 0.506695C16.8774 0.506695 16.8919 0.518274 16.8963 0.532466C16.9008 0.546644 16.918 0.573049 16.9345 0.591134C16.9511 0.609231 16.9616 0.629016 16.9579 0.635116C16.9541 0.641216 16.9627 0.6462 16.9769 0.6462C16.9911 0.6462 17.0027 0.652313 17.0027 0.659783C17.0027 0.679847 17.0356 0.709612 17.0577 0.709612C17.0693 0.709612 17.0743 0.716866 17.0702 0.727659C17.0663 0.737893 17.0742 0.751615 17.0885 0.759339C17.1023 0.766834 17.1154 0.78582 17.1176 0.801533C17.1202 0.820201 17.1302 0.830106 17.1465 0.830119C17.1611 0.830132 17.1733 0.840239 17.176 0.854583C17.1821 0.886568 17.212 0.91627 17.228 0.906251C17.2352 0.901723 17.2406 0.912237 17.2406 0.930804C17.2406 0.956561 17.2468 0.963258 17.2705 0.963258C17.287 0.963258 17.3002 0.970398 17.2998 0.97911C17.2983 1.02043 17.3045 1.03908 17.3189 1.03618C17.3277 1.03439 17.3362 1.04827 17.3385 1.06789C17.3412 1.09173 17.3497 1.10276 17.3653 1.10276C17.3789 1.10276 17.3912 1.11495 17.3956 1.13296C17.3997 1.14956 17.4144 1.16615 17.4283 1.16981C17.4421 1.17348 17.4535 1.18707 17.4535 1.20002C17.4535 1.21297 17.4661 1.22921 17.4816 1.23609C17.497 1.24298 17.5118 1.25995 17.5144 1.2738C17.517 1.28764 17.5305 1.30904 17.5445 1.32135C17.5586 1.33366 17.5649 1.34375 17.5587 1.34378C17.5525 1.3438 17.5657 1.35513 17.5881 1.36895C17.6123 1.38392 17.6288 1.40441 17.6288 1.41963C17.6288 1.43374 17.6371 1.44518 17.6473 1.44518C17.6575 1.44518 17.6694 1.45945 17.6737 1.47689C17.6781 1.49433 17.6893 1.5086 17.6988 1.5086C17.7082 1.5086 17.7198 1.5243 17.7244 1.54347C17.729 1.56265 17.7432 1.59196 17.7559 1.6086C17.7687 1.62524 17.7791 1.64454 17.7791 1.6515C17.7791 1.66648 17.828 1.71151 17.8443 1.71151C17.8506 1.71151 17.852 1.71747 17.8476 1.72475C17.8363 1.74319 17.865 1.77492 17.893 1.77492C17.9121 1.77492 17.9149 1.78165 17.9087 1.81297C17.9022 1.84569 17.9049 1.85102 17.9278 1.85102C17.9447 1.85102 17.9545 1.85911 17.9546 1.87321C17.9547 1.88541 17.9688 1.90885 17.9859 1.92527C18.003 1.9417 18.017 1.96227 18.017 1.97098C18.017 1.97969 18.0306 2.00173 18.0473 2.01997C18.0792 2.05475 18.0991 2.10021 18.0941 2.12665C18.0923 2.13599 18.0989 2.13927 18.1104 2.13481C18.124 2.12955 18.1297 2.13514 18.1297 2.15363C18.1297 2.1681 18.1424 2.18726 18.1579 2.1962C18.1734 2.20514 18.1863 2.21817 18.1865 2.22514C18.1872 2.24353 18.2345 2.33854 18.2454 2.34346C18.2505 2.34577 18.266 2.37364 18.2799 2.40544C18.2938 2.43722 18.3164 2.4731 18.3301 2.48517C18.3439 2.49726 18.3551 2.51644 18.3551 2.52783C18.3551 2.53922 18.3607 2.54854 18.3676 2.54854C18.3745 2.54854 18.3802 2.5571 18.3802 2.56757C18.3802 2.57803 18.3858 2.58659 18.3927 2.58659C18.3996 2.58659 18.4052 2.59515 18.4052 2.60561C18.4052 2.61608 18.4107 2.62464 18.4173 2.62464C18.424 2.62464 18.4264 2.63268 18.4227 2.64252C18.4186 2.65335 18.4264 2.66377 18.4426 2.66897C18.4646 2.67605 18.4679 2.68408 18.4613 2.71452C18.4563 2.73751 18.4584 2.75146 18.4668 2.75146C18.4963 2.75146 18.5329 2.80538 18.5329 2.84869C18.5329 2.87287 18.5361 2.88947 18.5399 2.88558C18.5526 2.87278 18.5792 2.90508 18.5719 2.92436C18.5678 2.93519 18.5798 2.95907 18.6 2.98051C18.6194 3.00105 18.6373 3.03066 18.6396 3.04635C18.6419 3.06202 18.649 3.07666 18.6553 3.07885C18.6616 3.08105 18.6633 3.09202 18.659 3.10324C18.6534 3.11804 18.6567 3.12157 18.6708 3.11605C18.6856 3.11034 18.6888 3.11469 18.6839 3.13367C18.6796 3.15011 18.6865 3.16535 18.7035 3.17746C18.7185 3.18809 18.7267 3.20403 18.7227 3.21471C18.7188 3.22498 18.7222 3.23339 18.7303 3.23339C18.7393 3.23339 18.7419 3.24322 18.737 3.25875C18.7325 3.2733 18.7348 3.28412 18.7425 3.28412C18.7498 3.28412 18.7558 3.2923 18.7558 3.30229C18.7558 3.31228 18.7673 3.32415 18.7814 3.32867C18.7997 3.33455 18.8048 3.34382 18.7993 3.36124C18.7951 3.37486 18.7976 3.38557 18.8051 3.38557C18.8124 3.38557 18.8184 3.39918 18.8184 3.4158C18.8184 3.43613 18.8273 3.44838 18.8455 3.45321C18.8681 3.45918 18.87 3.4636 18.857 3.4795C18.8395 3.50079 18.8486 3.52508 18.8741 3.52508C18.8832 3.52508 18.8936 3.53649 18.8972 3.55044C18.9008 3.56439 18.8987 3.57581 18.8924 3.57581C18.8862 3.57581 18.8811 3.58152 18.8811 3.58849C18.8811 3.59547 18.8901 3.60117 18.9012 3.60117C18.9166 3.60117 18.9194 3.60888 18.9132 3.63394C18.9085 3.65299 18.91 3.66366 18.9167 3.65942C18.9297 3.65134 18.9713 3.73132 18.9673 3.75648C18.9631 3.78281 18.9827 3.81677 19.0021 3.81677C19.0121 3.81677 19.0175 3.82136 19.0141 3.82697C19.0036 3.84415 19.0312 3.94909 19.0501 3.96362C19.0598 3.97115 19.0702 3.99866 19.073 4.02475C19.0758 4.05084 19.0845 4.07864 19.0923 4.08652C19.1001 4.0944 19.1065 4.11113 19.1065 4.12368C19.1065 4.13624 19.1121 4.14651 19.119 4.14651C19.1259 4.14651 19.1315 4.15758 19.1315 4.17113C19.1315 4.18467 19.1372 4.19933 19.1442 4.20371C19.1512 4.2081 19.1541 4.21639 19.1506 4.22215C19.1471 4.22792 19.1532 4.23612 19.1642 4.24041C19.1761 4.24504 19.1812 4.25621 19.1767 4.26805C19.1725 4.27896 19.178 4.29687 19.1888 4.30783C19.2018 4.32093 19.2039 4.3306 19.1952 4.33607C19.1805 4.34529 19.2044 4.42552 19.2219 4.42552C19.2273 4.42552 19.2317 4.43408 19.2317 4.44455C19.2317 4.45501 19.2374 4.46357 19.2444 4.46357C19.2522 4.46357 19.2539 4.48362 19.2487 4.51624C19.2427 4.55448 19.2444 4.56643 19.2548 4.55988C19.264 4.55415 19.2693 4.56066 19.2693 4.57771C19.2693 4.59248 19.2749 4.60104 19.2818 4.59673C19.2887 4.59242 19.2943 4.60017 19.2943 4.61395C19.2943 4.62773 19.3008 4.64118 19.3086 4.64383C19.3193 4.64745 19.3192 4.65567 19.3083 4.67631C19.2962 4.69923 19.2978 4.7081 19.3177 4.72822C19.3315 4.74222 19.3455 4.78042 19.3506 4.81844C19.3556 4.8547 19.3674 4.89956 19.377 4.91811C19.3865 4.93666 19.3945 4.9604 19.3948 4.97086C19.3951 4.98132 19.4035 5.00092 19.4136 5.01441C19.4297 5.03597 19.4296 5.04248 19.4129 5.06831C19.3952 5.09568 19.3956 5.09768 19.4192 5.09768C19.4406 5.09768 19.4446 5.10594 19.4446 5.14977C19.4446 5.18771 19.4491 5.2001 19.4611 5.19543C19.4738 5.1905 19.4781 5.21003 19.4793 5.27854C19.4802 5.3278 19.4858 5.37146 19.4918 5.37556C19.5086 5.38704 19.5226 5.42858 19.5285 5.48449C19.5315 5.51239 19.5384 5.53684 19.5438 5.53884C19.5492 5.54083 19.5512 5.55561 19.5481 5.57171C19.545 5.58825 19.5513 5.60979 19.5626 5.62125C19.576 5.63475 19.5833 5.66715 19.5847 5.71837C19.5859 5.76062 19.5913 5.79521 19.5967 5.79521C19.6021 5.79521 19.6033 5.80377 19.5994 5.81423C19.5954 5.8247 19.5987 5.83326 19.6068 5.83326C19.6148 5.83326 19.6179 5.83896 19.6136 5.84594C19.6094 5.85291 19.6117 5.85862 19.6188 5.85862C19.6258 5.85862 19.6284 5.86726 19.6244 5.87781C19.6204 5.88836 19.6241 5.90548 19.6326 5.91587C19.6425 5.92797 19.646 5.95983 19.6423 6.00449C19.6376 6.06201 19.6401 6.07426 19.6564 6.07441C19.6697 6.07455 19.6715 6.07768 19.6617 6.08396C19.6455 6.09441 19.6539 6.16299 19.6714 6.16299C19.6775 6.16299 19.6825 6.17951 19.6825 6.19969C19.6825 6.2227 19.6905 6.23949 19.7041 6.24476C19.7173 6.24991 19.7206 6.25653 19.7125 6.26197C19.6982 6.27164 19.6947 6.40396 19.7087 6.40396C19.7179 6.40396 19.7291 6.4661 19.7407 6.58151C19.7446 6.61987 19.7542 6.65546 19.7621 6.66058C19.7716 6.66679 19.7719 6.66996 19.7629 6.6701C19.7547 6.67021 19.7496 6.69807 19.7501 6.74004C19.7505 6.7784 19.7559 6.80979 19.762 6.80979C19.7681 6.80979 19.7702 6.8252 19.7666 6.84402C19.7631 6.86285 19.766 6.89282 19.7731 6.9106C19.7803 6.9284 19.7854 6.95663 19.7844 6.97334C19.7834 6.99006 19.7891 7.01159 19.797 7.02119C19.8085 7.03522 19.8066 7.03713 19.7876 7.03096C19.7654 7.02374 19.7654 7.02469 19.7889 7.04652C19.8032 7.05972 19.813 7.08349 19.8116 7.10148C19.8007 7.24751 19.8002 7.27904 19.8093 7.27904C19.815 7.27904 19.814 7.294 19.8072 7.31229C19.7983 7.33589 19.799 7.35079 19.8095 7.36368C19.818 7.37403 19.8242 7.41967 19.8238 7.46993C19.8235 7.5184 19.828 7.55805 19.8339 7.55805C19.8397 7.55805 19.8413 7.56661 19.8373 7.57707C19.8333 7.58753 19.8362 7.59609 19.8436 7.59609C19.8532 7.59609 19.8534 7.60619 19.8445 7.62992C19.8375 7.64852 19.8362 7.66706 19.8417 7.67113C19.8556 7.68153 19.8574 7.72292 19.8439 7.72292C19.8269 7.72292 19.8315 7.7887 19.851 7.82434C19.8631 7.84661 19.8644 7.86072 19.8553 7.87189C19.8481 7.88063 19.8472 7.88778 19.8532 7.8878C19.8695 7.88781 19.8686 8.25548 19.8523 8.25595C19.845 8.25617 19.8492 8.26233 19.8616 8.26966C19.8788 8.27977 19.8809 8.28708 19.8704 8.29991C19.8601 8.31245 19.8619 8.33565 19.8773 8.38927C19.9017 8.4741 19.895 8.60969 19.8573 8.79457C19.8103 9.02512 19.7379 9.19291 19.6105 9.36612C19.5044 9.5105 19.2457 9.77407 19.1628 9.82225C19.1284 9.84228 19.0974 9.8618 19.0939 9.86561C19.0905 9.86943 19.0651 9.88322 19.0376 9.89623C19.01 9.90924 18.9719 9.9282 18.9528 9.93835C18.9337 9.94849 18.9028 9.95958 18.8843 9.96299C18.8657 9.9664 18.8447 9.97391 18.8376 9.97968C18.8112 10.0011 18.6078 10.0465 18.4866 10.058C18.4111 10.0651 16.3339 10.0696 13.2521 10.0692C8.10936 10.0685 7.89465 10.0701 7.46667 10.114C7.13749 10.1478 6.61251 10.2357 6.44597 10.285C6.42192 10.2921 6.36508 10.3034 6.31966 10.31C6.14797 10.3352 5.41459 10.5714 5.25643 10.6525C5.23232 10.6649 5.15907 10.6937 5.09364 10.7166C4.94242 10.7694 4.13176 11.1723 4.07001 11.2253C4.0579 11.2357 3.97554 11.2888 3.88699 11.3433C3.79843 11.3978 3.70263 11.4602 3.67411 11.4819C3.64557 11.5037 3.60814 11.5278 3.59092 11.5356C3.5568 11.551 3.26741 11.7624 3.24676 11.787C3.23107 11.8057 3.08912 11.9158 3.02114 11.962C2.99359 11.9807 2.93442 12.0311 2.88965 12.074C2.84488 12.1168 2.74926 12.2041 2.67716 12.2678C2.60506 12.3315 2.48954 12.4436 2.42044 12.5168C2.35135 12.5901 2.2454 12.7003 2.18499 12.7618C2.12457 12.8233 2.06554 12.889 2.0538 12.9077C2.04207 12.9264 1.98443 12.9981 1.92572 13.0671C1.77717 13.2416 1.66883 13.3806 1.64483 13.4276C1.63363 13.4495 1.60007 13.4978 1.57023 13.5349C1.48965 13.6351 1.30429 13.9203 1.19334 14.1148C1.13961 14.209 1.07442 14.3206 1.04845 14.3629C0.986436 14.464 0.885253 14.6692 0.773764 14.9201C0.724175 15.0317 0.669626 15.1534 0.652558 15.1904C0.597583 15.3099 0.460298 15.6751 0.43534 15.7682C0.422016 15.8179 0.393627 15.9128 0.372239 15.9791C0.22784 16.4265 0.0889765 17.0896 0.0482153 17.5263C0.0135902 17.8974 0.00953298 18.4291 0.00304626 23.4426C-0.00352813 28.5226 -0.00207542 28.7991 0.0342027 29.4033C0.0629672 29.8823 0.199539 30.5723 0.371825 31.1091C0.406526 31.2172 0.43499 31.3128 0.435065 31.3216C0.435253 31.3412 0.596694 31.7825 0.610169 31.8002C0.615466 31.8072 0.643542 31.87 0.672569 31.9397C0.721846 32.0582 0.746653 32.1129 0.885329 32.409C0.914732 32.4718 1.00159 32.6334 1.07834 32.7683C1.15509 32.9031 1.22574 33.0287 1.23536 33.0473C1.27315 33.1205 1.55136 33.5326 1.69598 33.7297C1.76074 33.818 2.03816 34.1538 2.12408 34.2479C2.4046 34.5552 2.94614 35.0913 2.97607 35.0913C2.98115 35.0913 2.99713 35.1041 3.01157 35.1198C3.02602 35.1355 3.05556 35.1626 3.07723 35.1801C3.0989 35.1975 3.13011 35.2246 3.14658 35.2403C3.16306 35.256 3.18183 35.2688 3.18832 35.2688C3.19479 35.2688 3.22679 35.2944 3.25941 35.3256C3.29204 35.3568 3.32873 35.3856 3.34097 35.3895C3.35319 35.3934 3.36613 35.4044 3.36969 35.4138C3.37326 35.4232 3.3921 35.4391 3.41155 35.449C3.48215 35.4851 3.50906 35.5026 3.55865 35.5447C3.56893 35.5534 3.58478 35.5605 3.59389 35.5605C3.60299 35.5605 3.61872 35.5723 3.62885 35.5867C3.63898 35.6011 3.66699 35.625 3.6911 35.6399C3.71521 35.6548 3.74405 35.6773 3.75518 35.6899C3.76632 35.7024 3.78201 35.7127 3.79005 35.7127C3.80333 35.7127 3.86364 35.7469 3.87894 35.7632C3.89685 35.7821 4.06545 35.8776 4.08106 35.8776C4.08912 35.8776 4.1139 35.8916 4.13613 35.9088C4.15834 35.926 4.20115 35.9499 4.23123 35.962C4.26131 35.9741 4.3079 36 4.33476 36.0196C4.36162 36.0391 4.39122 36.0551 4.40051 36.0551C4.40981 36.0551 4.41741 36.0599 4.41741 36.0657C4.41741 36.0715 4.42446 36.0764 4.43307 36.0766C4.44168 36.0768 4.49662 36.0999 4.55516 36.1281C4.71056 36.2028 4.79144 36.2386 4.86197 36.2641C4.8964 36.2765 5.01474 36.3254 5.12494 36.3726C5.40731 36.4935 5.85678 36.6559 5.98274 36.6824C6.00685 36.6875 6.15055 36.7221 6.30207 36.7594C6.74944 36.8694 7.08691 36.9273 7.57312 36.9774C7.77964 36.9987 8.10964 37 13.3022 37C19.2171 37 18.8899 37.0034 19.3945 36.9354C19.6981 36.8944 19.9694 36.8416 20.2773 36.7636C20.4151 36.7287 20.5639 36.6921 20.608 36.6823C20.6966 36.6625 21.0847 36.5303 21.2416 36.4664C21.7366 36.2649 21.9838 36.1509 22.2309 36.0102C22.2997 35.971 22.3899 35.9211 22.4312 35.8994C22.5488 35.8377 22.8354 35.6582 22.9321 35.5858C22.9803 35.5497 23.053 35.5004 23.0936 35.4762C23.1653 35.4336 23.3075 35.3299 23.3329 35.3018C23.3472 35.2859 23.5584 35.116 23.6334 35.06C23.8061 34.9312 24.4196 34.3138 24.6029 34.0843C24.6403 34.0376 24.7156 33.9468 24.7703 33.8827C24.825 33.8185 24.8992 33.7203 24.9353 33.6645C24.9713 33.6087 25.0305 33.5234 25.0668 33.4749C25.3016 33.1609 25.6033 32.6298 25.8165 32.1553C26.0202 31.7019 26.1009 31.5016 26.1587 31.3056C26.1792 31.2359 26.2039 31.1531 26.2134 31.1217C26.2842 30.8876 26.3306 30.7236 26.3444 30.6588C26.3503 30.6309 26.3635 30.5824 26.3737 30.551C26.3839 30.5196 26.4043 30.4283 26.419 30.3481C26.4338 30.2679 26.4512 30.1794 26.4577 30.1515C26.4723 30.0887 26.5035 29.8672 26.5305 29.6346L26.5405 29.5489L26.3671 29.1083C26.2717 28.866 26.1775 28.6192 26.1577 28.5599C26.138 28.5006 26.0981 28.3922 26.0691 28.3189C26.0401 28.2457 25.9808 28.0945 25.9372 27.9829C25.8936 27.8713 25.835 27.7234 25.807 27.6542C25.7789 27.585 25.756 27.5209 25.756 27.5116C25.756 27.5024 25.6678 27.2708 25.5601 26.9969C25.4524 26.7231 25.3589 26.4791 25.3524 26.4547C25.3459 26.4302 25.2537 26.1894 25.1476 25.9195C25.0414 25.6496 24.9545 25.4231 24.9545 25.4163C24.9545 25.4041 24.8469 25.1232 24.6915 24.7299C24.598 24.4931 24.5646 24.4035 24.5353 24.3113C24.5231 24.273 24.4999 24.2102 24.4838 24.1718C24.408 23.9915 24.2793 23.6478 24.2843 23.6396C24.2875 23.6344 24.317 23.6201 24.3499 23.6077C24.5207 23.5434 24.9113 23.3116 25.1042 23.16C25.2515 23.0444 25.5299 22.7584 25.644 22.6055C25.8084 22.3853 25.9904 22.0605 26.0815 21.8248C26.1353 21.6856 26.2302 21.3025 26.2588 21.1091C26.2843 20.9363 26.2805 20.3723 26.2526 20.2086C26.2331 20.0943 26.1782 19.8462 26.143 19.714C26.0899 19.5146 25.9182 19.1609 25.7489 18.9023C25.4459 18.4396 24.9843 18.0496 24.4348 17.7922C24.285 17.7219 24.0215 17.6326 23.9152 17.616C23.8635 17.6079 23.7874 17.5935 23.7461 17.5839C23.5941 17.5487 23.4156 17.5337 23.1575 17.5346C22.843 17.5356 22.671 17.5577 22.3248 17.6418C22.0263 17.7144 21.5332 17.9677 21.2571 18.1903C20.9921 18.404 20.6399 18.7967 20.5388 18.9911C20.5171 19.033 20.476 19.1072 20.4476 19.156C20.3057 19.3997 20.1607 19.7847 20.1323 19.993C20.1266 20.0349 20.1133 20.1204 20.1027 20.1831C20.0402 20.5536 20.0552 20.9808 20.1471 21.4451C20.1649 21.5347 20.2483 21.7865 20.3037 21.9175C20.3773 22.0916 20.5581 22.4088 20.6706 22.561C20.8753 22.838 21.2355 23.1793 21.482 23.3297C21.6879 23.4554 21.8107 23.5246 21.8865 23.5577C21.9313 23.5772 21.97 23.5947 21.9726 23.5966C21.9752 23.5985 21.9261 23.7308 21.8636 23.8906C21.8012 24.0504 21.7462 24.1968 21.7415 24.2158C21.7368 24.2348 21.7078 24.314 21.677 24.3918C21.6463 24.4696 21.5902 24.6132 21.5522 24.7108C21.5143 24.8085 21.4707 24.9169 21.4553 24.9518C21.4314 25.0063 21.368 25.1802 21.3259 25.3069C21.3189 25.3278 21.2361 25.539 21.1418 25.7761C21.0475 26.0133 20.9517 26.2646 20.9289 26.3346C20.906 26.4045 20.8757 26.4873 20.8615 26.5185C20.8208 26.6074 20.6546 27.036 20.4609 27.5517C20.4189 27.6633 20.334 27.8813 20.2722 28.0361C20.2104 28.1909 20.1528 28.3422 20.1442 28.3722C20.1356 28.4022 20.0478 28.6316 19.949 28.8819C19.8503 29.1322 19.7525 29.3879 19.7318 29.45C19.7111 29.5121 19.6704 29.6031 19.6414 29.6522C19.5822 29.7523 19.376 29.9669 19.2689 30.04C19.1598 30.1144 19.0091 30.1789 18.8623 30.2139C18.5455 30.2896 18.9403 30.2845 13.3209 30.2846C7.71286 30.2847 8.02656 30.2886 7.71288 30.2154C7.55074 30.1776 7.50001 30.16 7.3853 30.1017C7.2322 30.0239 7.00599 29.8318 6.91817 29.7051C6.79822 29.532 6.68447 29.2114 6.64393 28.932C6.62023 28.7687 6.62081 18.3838 6.64453 18.1858C6.67402 17.9396 6.73256 17.7343 6.8316 17.5299C6.92113 17.3451 6.98584 17.2666 7.16613 17.124C7.3539 16.9754 7.54174 16.8889 7.81576 16.8248C7.93001 16.7981 7.93005 16.7981 11.2441 16.7912L14.5582 16.7844L14.7142 16.4734C14.7999 16.3023 14.8756 16.151 14.8823 16.1373C14.9321 16.0355 14.9597 15.9862 15.0741 15.7952C15.1451 15.6766 15.219 15.5596 15.2383 15.5352C15.2576 15.5108 15.2819 15.4708 15.2924 15.4464C15.3132 15.3976 15.3985 15.2734 15.5651 15.0492C15.625 14.9686 15.6882 14.8798 15.7056 14.8519C15.7229 14.8241 15.7479 14.7909 15.7611 14.7783C15.7742 14.7656 15.8261 14.7039 15.8764 14.6411C16.3284 14.0764 16.9508 13.4726 17.5398 13.0272C17.7992 12.831 18.0076 12.6893 18.3363 12.4856C18.5529 12.3514 18.5346 12.3619 18.7057 12.2751C18.7781 12.2385 18.8594 12.1944 18.8865 12.1771C18.9288 12.1502 19.1634 12.0341 19.3256 11.9598C19.5374 11.8628 20.1705 11.6191 20.3478 11.5664C21.1371 11.3316 21.7849 11.2078 22.5502 11.1453C22.8331 11.1222 23.5762 11.1259 23.8776 11.1519C24.48 11.2038 24.9613 11.2872 25.5118 11.4352C25.6564 11.4741 25.8058 11.5129 25.8436 11.5215C25.9366 11.5424 26.1108 11.5998 26.3445 11.6864C26.4513 11.726 26.5478 11.7612 26.559 11.7646C26.5777 11.7702 26.5802 11.7061 26.5886 11.0309C26.6006 10.0528 26.5902 8.05472 26.5717 7.78633C26.524 7.09631 26.4079 6.47452 26.2177 5.89033C26.1972 5.82755 26.1698 5.7362 26.1568 5.68732C26.1223 5.55753 25.9843 5.20627 25.8638 4.94156C25.8061 4.81468 25.7554 4.69946 25.7511 4.68551C25.7388 4.64505 25.5431 4.28066 25.448 4.12115C25.4002 4.04093 25.3548 3.96083 25.3472 3.94315C25.3277 3.89831 25.0347 3.46367 24.9926 3.41728C24.9737 3.39635 24.9551 3.37041 24.9515 3.35963C24.9418 3.33124 24.763 3.10157 24.6755 3.00511C24.6344 2.95977 24.5781 2.89181 24.5504 2.8541C24.4838 2.76338 24.07 2.33075 23.9595 2.23624C23.9116 2.19527 23.827 2.11878 23.7717 2.06626C23.6534 1.95414 23.5042 1.83031 23.4318 1.78433C23.4036 1.7664 23.3614 1.73395 23.3379 1.71222C23.265 1.64469 23.017 1.47049 22.7881 1.32612C22.6676 1.25009 22.5352 1.16562 22.4938 1.13839C22.4035 1.07891 21.7184 0.733683 21.5421 0.658845C21.4732 0.629612 21.3718 0.58984 21.3167 0.570487C21.2616 0.551121 21.1264 0.502903 21.0162 0.463334C20.6434 0.329486 20.0485 0.164286 19.9392 0.164274C19.9185 0.164274 19.8424 0.152796 19.7701 0.138757C19.5812 0.102092 19.2197 0.0537474 18.954 0.0296003C18.7687 0.0127709 18.5035 0.00763458 17.5756 0.00286604C16.5026 -0.00263807 16.4266 -0.00159806 16.4266 0.0184273ZM19.1315 4.26065C19.1315 4.26763 19.1371 4.27333 19.144 4.27333C19.1509 4.27333 19.1566 4.26763 19.1566 4.26065C19.1566 4.25368 19.1509 4.24797 19.144 4.24797C19.1371 4.24797 19.1315 4.25368 19.1315 4.26065Z" fill="currentColor"/>
  <path d="M36.8428 25.1465V6.54929H43.784C45.827 6.54929 47.5296 6.96838 48.8916 7.80656C50.2712 8.62729 51.3102 9.74486 52.0086 11.1593C52.7071 12.5563 53.0564 14.1104 53.0564 15.8217C53.0564 17.7076 52.6722 19.349 51.9039 20.746C51.1355 22.143 50.0529 23.2256 48.6559 23.994C47.2764 24.7623 45.6524 25.1465 43.784 25.1465H36.8428ZM48.6821 15.8217C48.6821 14.739 48.49 13.7874 48.1058 12.9666C47.7217 12.1284 47.1629 11.4823 46.4295 11.0283C45.6961 10.5569 44.8142 10.3211 43.784 10.3211H41.1384V21.3747H43.784C44.8317 21.3747 45.7135 21.1389 46.4295 20.6674C47.1629 20.1785 47.7217 19.5149 48.1058 18.6768C48.49 17.8211 48.6821 16.8694 48.6821 15.8217ZM63.7385 25.3036C62.3415 25.3036 61.0755 25.0417 59.9405 24.5178C58.8229 23.9765 57.8538 23.2606 57.033 22.37C56.2298 21.462 55.6099 20.4492 55.1733 19.3316C54.7368 18.1965 54.5185 17.0266 54.5185 15.8217C54.5185 14.5819 54.7455 13.4032 55.1995 12.2856C55.671 11.168 56.3171 10.1727 57.1378 9.29958C57.976 8.40901 58.9626 7.71052 60.0976 7.20412C61.2327 6.69772 62.4725 6.44452 63.8171 6.44452C65.1966 6.44452 66.4451 6.71518 67.5627 7.25651C68.6978 7.78037 69.6669 8.49632 70.4702 9.40435C71.2909 10.3124 71.9195 11.3339 72.3561 12.469C72.7926 13.5865 73.0109 14.7303 73.0109 15.9003C73.0109 17.1401 72.7839 18.3188 72.3299 19.4364C71.8759 20.5539 71.2298 21.558 70.3916 22.4486C69.5534 23.3217 68.5668 24.0202 67.4317 24.544C66.3142 25.0504 65.0831 25.3036 63.7385 25.3036ZM58.8928 15.8741C58.8928 16.59 58.9975 17.2885 59.2071 17.9695C59.4166 18.6331 59.7222 19.2268 60.1238 19.7507C60.5429 20.2745 61.0581 20.6936 61.6692 21.008C62.2804 21.3223 62.9789 21.4794 63.7647 21.4794C64.5854 21.4794 65.3014 21.3223 65.9125 21.008C66.5237 20.6762 67.0301 20.2396 67.4317 19.6983C67.8334 19.157 68.1302 18.5545 68.3223 17.891C68.5319 17.2099 68.6366 16.5202 68.6366 15.8217C68.6366 15.1057 68.5319 14.416 68.3223 13.7524C68.1128 13.0889 67.7985 12.4952 67.3794 11.9713C66.9603 11.43 66.4451 11.0109 65.834 10.714C65.2228 10.4172 64.533 10.2687 63.7647 10.2687C62.944 10.2687 62.228 10.4259 61.6168 10.7402C61.0231 11.0545 60.5167 11.4823 60.0976 12.0237C59.696 12.5475 59.3904 13.15 59.1809 13.831C58.9888 14.4946 58.8928 15.1756 58.8928 15.8741ZM86.5491 11.9975C86.4967 11.9102 86.3134 11.7792 85.9991 11.6046C85.6847 11.4125 85.2918 11.2117 84.8204 11.0021C84.3489 10.7926 83.8338 10.6092 83.275 10.4521C82.7162 10.2949 82.1574 10.2163 81.5986 10.2163C80.8652 10.2163 80.2977 10.3473 79.896 10.6092C79.4944 10.8537 79.2936 11.2379 79.2936 11.7617C79.2936 12.1808 79.442 12.5126 79.7389 12.7571C80.0532 13.0016 80.4985 13.2198 81.0747 13.4119C81.651 13.5865 82.3582 13.7961 83.1964 14.0406C84.3838 14.3549 85.4141 14.739 86.2872 15.1931C87.1603 15.6296 87.8239 16.1971 88.2779 16.8956C88.7494 17.5941 88.9851 18.5196 88.9851 19.6721C88.9851 20.7198 88.793 21.6104 88.4088 22.3438C88.0247 23.0598 87.5008 23.6447 86.8372 24.0988C86.1911 24.5353 85.449 24.8584 84.6108 25.0679C83.7726 25.26 82.9083 25.356 82.0177 25.356C81.1097 25.356 80.1754 25.2687 79.215 25.0941C78.2721 24.902 77.364 24.6401 76.4909 24.3083C75.6178 23.9591 74.8146 23.54 74.0811 23.051L75.9671 19.3054C76.0369 19.3927 76.2639 19.5586 76.6481 19.8031C77.0322 20.0301 77.5037 20.2745 78.0625 20.5365C78.6388 20.7809 79.2761 20.9992 79.9746 21.1913C80.6731 21.3834 81.3803 21.4794 82.0963 21.4794C82.8646 21.4794 83.4321 21.3572 83.7988 21.1127C84.183 20.8683 84.3751 20.5277 84.3751 20.0912C84.3751 19.6197 84.1743 19.253 83.7726 18.9911C83.3885 18.7291 82.8559 18.4934 82.1749 18.2839C81.5113 18.0743 80.743 17.8386 79.8698 17.5766C78.7348 17.2274 77.7919 16.8345 77.041 16.3979C76.3076 15.9614 75.7575 15.4288 75.3908 14.8002C75.0416 14.1715 74.8669 13.3857 74.8669 12.4428C74.8669 11.1331 75.1725 10.033 75.7837 9.14242C76.4123 8.23439 77.2505 7.55336 78.2983 7.09935C79.346 6.62787 80.4898 6.39213 81.7296 6.39213C82.6027 6.39213 83.4409 6.4969 84.2441 6.70645C85.0648 6.91599 85.8244 7.17793 86.5229 7.49225C87.2389 7.80656 87.8762 8.12088 88.435 8.4352L86.5491 11.9975ZM90.4319 15.6907C90.4319 14.5557 90.6414 13.4468 91.0605 12.3642C91.4796 11.2641 92.0908 10.2687 92.894 9.37816C93.6973 8.48759 94.6752 7.78037 95.8277 7.25651C96.9802 6.71518 98.2898 6.44452 99.7567 6.44452C101.503 6.44452 103.013 6.81995 104.288 7.57083C105.58 8.3217 106.541 9.29958 107.169 10.5045L103.869 12.8095C103.59 12.1459 103.214 11.6308 102.743 11.2641C102.289 10.8974 101.782 10.6442 101.223 10.5045C100.682 10.3473 100.158 10.2687 99.6519 10.2687C98.8312 10.2687 98.1152 10.4346 97.504 10.7664C96.8929 11.0807 96.3865 11.5085 95.9848 12.0499C95.5832 12.5912 95.2863 13.1936 95.0943 13.8572C94.9022 14.5208 94.8061 15.1843 94.8061 15.8479C94.8061 16.5813 94.9196 17.2885 95.1466 17.9695C95.3737 18.6506 95.6967 19.253 96.1158 19.7769C96.5523 20.3007 97.0762 20.7198 97.6874 21.0341C98.2986 21.331 98.9709 21.4794 99.7043 21.4794C100.228 21.4794 100.761 21.3921 101.302 21.2175C101.843 21.0429 102.341 20.7722 102.795 20.4055C103.267 20.0213 103.625 19.5237 103.869 18.9125L107.379 20.9818C107.012 21.8898 106.41 22.6669 105.572 23.313C104.733 23.9591 103.782 24.4567 102.716 24.806C101.669 25.1378 100.63 25.3036 99.5995 25.3036C98.2549 25.3036 97.0151 25.033 95.8801 24.4917C94.7625 23.9329 93.7933 23.1995 92.9726 22.2914C92.1693 21.3659 91.5407 20.3357 91.0867 19.2006C90.6501 18.0481 90.4319 16.8782 90.4319 15.6907ZM117.43 25.3036C116.033 25.3036 114.767 25.0417 113.631 24.5178C112.514 23.9765 111.545 23.2606 110.724 22.37C109.921 21.462 109.301 20.4492 108.864 19.3316C108.428 18.1965 108.209 17.0266 108.209 15.8217C108.209 14.5819 108.436 13.4032 108.891 12.2856C109.362 11.168 110.008 10.1727 110.829 9.29958C111.667 8.40901 112.654 7.71052 113.789 7.20412C114.924 6.69772 116.164 6.44452 117.508 6.44452C118.888 6.44452 120.136 6.71518 121.254 7.25651C122.389 7.78037 123.358 8.49632 124.161 9.40435C124.982 10.3124 125.611 11.3339 126.047 12.469C126.484 13.5865 126.702 14.7303 126.702 15.9003C126.702 17.1401 126.475 18.3188 126.021 19.4364C125.567 20.5539 124.921 21.558 124.083 22.4486C123.244 23.3217 122.258 24.0202 121.123 24.544C120.005 25.0504 118.774 25.3036 117.43 25.3036ZM112.584 15.8741C112.584 16.59 112.689 17.2885 112.898 17.9695C113.108 18.6331 113.413 19.2268 113.815 19.7507C114.234 20.2745 114.749 20.6936 115.36 21.008C115.971 21.3223 116.67 21.4794 117.456 21.4794C118.276 21.4794 118.992 21.3223 119.604 21.008C120.215 20.6762 120.721 20.2396 121.123 19.6983C121.524 19.157 121.821 18.5545 122.013 17.891C122.223 17.2099 122.328 16.5202 122.328 15.8217C122.328 15.1057 122.223 14.416 122.013 13.7524C121.804 13.0889 121.489 12.4952 121.07 11.9713C120.651 11.43 120.136 11.0109 119.525 10.714C118.914 10.4172 118.224 10.2687 117.456 10.2687C116.635 10.2687 115.919 10.4259 115.308 10.7402C114.714 11.0545 114.208 11.4823 113.789 12.0237C113.387 12.5475 113.081 13.15 112.872 13.831C112.68 14.4946 112.584 15.1756 112.584 15.8741ZM143.852 25.1465V14.0667L139.845 22.1343H137.487L133.48 14.0667V25.1465H129.184V6.54929H133.847L138.666 16.267L143.512 6.54929H148.148V25.1465H143.852Z" fill="currentColor"/>
  <path d="M39.3605 34.8535H37.4889V29.5492H39.3605C40.8836 29.5492 41.9445 30.6252 41.9445 32.1711C41.9445 33.7548 40.8836 34.8535 39.3605 34.8535ZM38.1254 30.1327V34.27H39.3984C40.4972 34.27 41.2701 33.4062 41.2701 32.1711C41.2701 31.0268 40.4972 30.1327 39.3984 30.1327H38.1254ZM43.1765 30.163C42.9113 30.163 42.7067 29.9584 42.7067 29.6932C42.7067 29.428 42.9113 29.231 43.1765 29.231C43.4417 29.231 43.6387 29.428 43.6387 29.6932C43.6387 29.9584 43.4417 30.163 43.1765 30.163ZM43.4872 34.8535H42.8582V30.8374H43.4872V34.8535ZM45.1448 34.8535H44.5158V30.8374H45.0159L45.0766 31.4512C45.3493 31.0268 45.8722 30.7465 46.4708 30.7465C47.3347 30.7465 47.9106 31.3072 47.9106 32.1938V34.8535H47.2816V32.2165C47.2816 31.6558 46.9179 31.2996 46.3117 31.2996C45.5918 31.2996 45.1523 31.7998 45.1448 32.4135V34.8535ZM50.3591 34.9369C49.3816 34.9369 48.8208 34.3382 48.8208 33.5199V30.8374H49.4498V33.4971C49.4498 34.073 49.8514 34.3837 50.4197 34.3837C51.1699 34.3837 51.5791 33.8836 51.5866 33.2774V30.8374H52.2156V34.8535H51.7155L51.6624 34.2473C51.3972 34.702 50.9122 34.9369 50.3591 34.9369ZM54.7481 34.9369C53.7934 34.9369 53.0887 34.4367 53.0356 33.5881H53.6494C53.6949 34.1109 54.1723 34.3989 54.7785 34.3989C55.3468 34.3989 55.6196 34.1791 55.6196 33.7775C55.6196 33.3986 55.324 33.3153 54.9073 33.1713L54.3238 32.9743C53.7328 32.7773 53.1417 32.5954 53.1417 31.8679C53.1417 31.186 53.6721 30.7465 54.5511 30.7465C55.4377 30.7465 56.0515 31.2239 56.15 32.118H55.5362C55.468 31.5573 55.074 31.2845 54.5284 31.2845C54.0359 31.2845 53.7479 31.5042 53.7479 31.8528C53.7479 32.2696 54.1874 32.3529 54.5208 32.4666L55.0664 32.6484C55.8014 32.8909 56.2409 33.141 56.2409 33.8078C56.2409 34.5125 55.7257 34.9369 54.7481 34.9369ZM61.1564 34.9369C59.6408 34.9369 58.6027 33.8609 58.6027 32.1862C58.6027 30.6101 59.5651 29.4659 61.1564 29.4659C62.687 29.4659 63.7252 30.5419 63.7252 32.1862C63.7252 33.7775 62.7628 34.9369 61.1564 34.9369ZM61.1564 34.3534C62.3385 34.3534 63.0735 33.5123 63.0735 32.1862C63.0735 30.8753 62.3309 30.0493 61.1564 30.0493C59.9894 30.0493 59.2544 30.8753 59.2544 32.1862C59.2544 33.5123 59.9894 34.3534 61.1564 34.3534ZM65.2878 36.369H64.6589V30.8374H65.159L65.2272 31.5648C65.5152 31.0647 66.0456 30.7465 66.6973 30.7465C67.7581 30.7465 68.5007 31.5952 68.5007 32.8227C68.5007 34.073 67.7581 34.9369 66.6973 34.9369C66.0835 34.9369 65.5758 34.6565 65.2878 34.1867V36.369ZM66.5988 34.3913C67.3414 34.3913 67.8491 33.7472 67.8491 32.8227C67.8491 31.921 67.3414 31.2921 66.5912 31.2921C65.8334 31.2921 65.2878 31.9058 65.2878 32.7924C65.2878 33.732 65.8334 34.3913 66.5988 34.3913ZM71.1011 34.9369C69.9114 34.9369 69.1233 34.0654 69.1233 32.8606C69.1233 31.4891 70.0099 30.7465 71.0253 30.7465C72.1316 30.7465 72.8439 31.4891 72.8667 32.7773V32.9515H69.7523C69.7902 33.8078 70.2903 34.3913 71.1011 34.3913C71.6618 34.3913 72.071 34.1109 72.2377 33.5881H72.8515C72.6697 34.414 72.018 34.9369 71.1011 34.9369ZM69.7902 32.4287H72.2074C72.0938 31.724 71.6694 31.2921 71.0253 31.2921C70.3888 31.2921 69.919 31.7088 69.7902 32.4287ZM74.3229 34.8535H73.6939V30.8374H74.194L74.2547 31.4512C74.5275 31.0268 75.0503 30.7465 75.6489 30.7465C76.5128 30.7465 77.0887 31.3072 77.0887 32.1938V34.8535H76.4597V32.2165C76.4597 31.6558 76.096 31.2996 75.4898 31.2996C74.7699 31.2996 74.3304 31.7998 74.3229 32.4135V34.8535ZM81.9591 34.9369C80.6254 34.9369 79.7085 34.2473 79.6403 33.2471H80.3071C80.3829 33.9291 81.027 34.361 81.9591 34.361C82.7699 34.361 83.1942 34.0276 83.1942 33.4744C83.1942 32.9364 82.7244 32.7318 82.2167 32.5727L81.2998 32.2847C80.8755 32.1483 79.807 31.921 79.807 30.8829C79.807 30.0266 80.5117 29.4659 81.6105 29.4659C82.8229 29.4659 83.5731 30.0796 83.6564 31.2087H82.9972C82.9441 30.4585 82.4213 30.0418 81.5802 30.0418C80.9133 30.0418 80.4435 30.3449 80.4435 30.8526C80.4435 31.436 81.0497 31.5573 81.5044 31.7012L82.3607 31.9665C83.0351 32.1786 83.8459 32.4438 83.8459 33.4441C83.8459 34.3761 83.1336 34.9369 81.9591 34.9369ZM86.4485 34.9369C85.1603 34.9369 84.4783 34.02 84.4783 32.8076C84.4783 31.4663 85.3573 30.7465 86.4485 30.7465C87.7291 30.7465 88.4186 31.6709 88.4186 32.8076C88.4186 34.1943 87.5775 34.9369 86.4485 34.9369ZM86.4485 34.3913C87.3047 34.3913 87.7745 33.679 87.7745 32.8076C87.7745 31.9058 87.2517 31.2921 86.4485 31.2921C85.6452 31.2921 85.1224 31.9058 85.1224 32.8076C85.1224 33.8381 85.721 34.3913 86.4485 34.3913ZM90.7038 34.9369C89.7262 34.9369 89.1655 34.3382 89.1655 33.5199V30.8374H89.7944V33.4971C89.7944 34.073 90.1961 34.3837 90.7644 34.3837C91.5146 34.3837 91.9237 33.8836 91.9313 33.2774V30.8374H92.5603V34.8535H92.0601L92.0071 34.2473C91.7419 34.702 91.2569 34.9369 90.7038 34.9369ZM94.2214 34.8535H93.5925V30.8374H94.0926L94.1684 31.6027C94.426 31.0875 94.8958 30.8147 95.5626 30.8147H95.699V31.436H95.5626C94.714 31.436 94.2214 31.921 94.2214 32.7469V34.8535ZM98.0302 34.9369C96.7268 34.9369 96.0297 33.9821 96.0297 32.8227C96.0297 31.4739 96.9162 30.7465 98.0074 30.7465C99.0152 30.7465 99.7351 31.3527 99.8488 32.3832H99.235C99.1289 31.7164 98.6667 31.2921 97.9923 31.2921C97.1966 31.2921 96.6662 31.8755 96.6662 32.8227C96.6662 33.8457 97.2875 34.3913 98.0377 34.3913C98.6818 34.3913 99.1213 33.9821 99.235 33.285H99.8488C99.7351 34.3231 99.0683 34.9369 98.0302 34.9369ZM102.447 34.9369C101.258 34.9369 100.47 34.0654 100.47 32.8606C100.47 31.4891 101.356 30.7465 102.372 30.7465C103.478 30.7465 104.19 31.4891 104.213 32.7773V32.9515H101.099C101.136 33.8078 101.637 34.3913 102.447 34.3913C103.008 34.3913 103.417 34.1109 103.584 33.5881H104.198C104.016 34.414 103.364 34.9369 102.447 34.9369ZM101.136 32.4287H103.554C103.44 31.724 103.016 31.2921 102.372 31.2921C101.735 31.2921 101.265 31.7088 101.136 32.4287ZM109.22 34.9369C107.591 34.9369 106.629 33.7927 106.629 32.1862C106.629 30.6101 107.591 29.4659 109.22 29.4659C110.569 29.4659 111.493 30.2539 111.721 31.5876H111.061C110.864 30.6176 110.182 30.0493 109.22 30.0493C108.03 30.0493 107.295 30.8753 107.295 32.1862C107.295 33.5426 108.03 34.3534 109.22 34.3534C110.213 34.3534 110.857 33.8154 111.061 32.8151H111.721C111.486 34.1943 110.607 34.9369 109.22 34.9369ZM114.406 34.9369C113.117 34.9369 112.435 34.02 112.435 32.8076C112.435 31.4663 113.314 30.7465 114.406 30.7465C115.686 30.7465 116.376 31.6709 116.376 32.8076C116.376 34.1943 115.535 34.9369 114.406 34.9369ZM114.406 34.3913C115.262 34.3913 115.732 33.679 115.732 32.8076C115.732 31.9058 115.209 31.2921 114.406 31.2921C113.602 31.2921 113.08 31.9058 113.08 32.8076C113.08 33.8381 113.678 34.3913 114.406 34.3913ZM117.827 34.8535H117.198V30.8374H117.699L117.759 31.4588C118.032 31.0268 118.555 30.7465 119.131 30.7465C119.737 30.7465 120.192 31.0571 120.396 31.5421C120.654 31.0723 121.207 30.7465 121.821 30.7465C122.669 30.7465 123.215 31.3451 123.215 32.1635V34.8535H122.586V32.1862C122.586 31.6482 122.253 31.2996 121.715 31.2996C120.964 31.2996 120.525 31.7998 120.517 32.4135V34.8535H119.896V32.1862C119.896 31.6482 119.563 31.2996 119.025 31.2996C118.274 31.2996 117.835 31.7998 117.827 32.4135V34.8535ZM124.828 34.8535H124.199V30.8374H124.699L124.76 31.4588C125.032 31.0268 125.555 30.7465 126.131 30.7465C126.737 30.7465 127.192 31.0571 127.397 31.5421C127.654 31.0723 128.207 30.7465 128.821 30.7465C129.67 30.7465 130.215 31.3451 130.215 32.1635V34.8535H129.586V32.1862C129.586 31.6482 129.253 31.2996 128.715 31.2996C127.965 31.2996 127.525 31.7998 127.518 32.4135V34.8535H126.896V32.1862C126.896 31.6482 126.563 31.2996 126.025 31.2996C125.275 31.2996 124.835 31.7998 124.828 32.4135V34.8535ZM132.662 34.9369C131.684 34.9369 131.123 34.3382 131.123 33.5199V30.8374H131.752V33.4971C131.752 34.073 132.154 34.3837 132.722 34.3837C133.472 34.3837 133.882 33.8836 133.889 33.2774V30.8374H134.518V34.8535H134.018L133.965 34.2473C133.7 34.702 133.215 34.9369 132.662 34.9369ZM136.179 34.8535H135.55V30.8374H136.05L136.111 31.4512C136.384 31.0268 136.907 30.7465 137.505 30.7465C138.369 30.7465 138.945 31.3072 138.945 32.1938V34.8535H138.316V32.2165C138.316 31.6558 137.952 31.2996 137.346 31.2996C136.626 31.2996 136.187 31.7998 136.179 32.4135V34.8535ZM140.249 30.163C139.984 30.163 139.78 29.9584 139.78 29.6932C139.78 29.428 139.984 29.231 140.249 29.231C140.515 29.231 140.712 29.428 140.712 29.6932C140.712 29.9584 140.515 30.163 140.249 30.163ZM140.56 34.8535H139.931V30.8374H140.56V34.8535ZM143.68 34.8535H143.233C142.453 34.8535 142.036 34.4519 142.036 33.7093V31.3678H141.293V30.8374H142.036V29.4659H142.665V30.8374H143.748V31.3678H142.665V33.7093C142.665 34.1109 142.862 34.3231 143.233 34.3231H143.68V34.8535ZM144.974 36.369H144.33V35.8386H144.974C145.384 35.8386 145.558 35.6946 145.649 35.4521L145.869 34.8535H145.717L144.126 30.8374H144.8L146.104 34.2246L147.361 30.8374H148.006L146.202 35.6946C146.035 36.1341 145.664 36.369 144.974 36.369Z" fill="currentColor"/>
</svg>
