<svg width="128" height="128" viewBox="0 0 128 128" fill="none" xmlns="http://www.w3.org/2000/svg">
<path fill-rule="evenodd" clip-rule="evenodd" d="M72.4588 13.615C72.4588 13.6954 72.5883 13.8721 72.6472 13.8721C72.6739 13.8721 72.6957 13.8944 72.6957 13.9216C72.6957 13.9488 72.7406 13.9979 72.7954 14.0307C72.8502 14.0635 72.8874 14.1029 72.878 14.1183C72.8686 14.1337 72.876 14.1463 72.8945 14.1463C72.9129 14.1463 72.9375 14.1764 72.949 14.2131C72.9605 14.2499 72.9988 14.2892 73.0341 14.3005C73.0707 14.3123 73.0907 14.3414 73.0806 14.3681C73.0692 14.3981 73.0913 14.4191 73.1416 14.4263C73.1994 14.4347 73.2232 14.4633 73.2312 14.5346C73.2391 14.6044 73.2564 14.626 73.293 14.6118C73.3455 14.5914 73.4403 14.6637 73.4403 14.7242C73.4403 14.7432 73.4707 14.7685 73.508 14.7804C73.5452 14.7924 73.5757 14.832 73.5757 14.8684C73.5757 14.911 73.599 14.9347 73.6411 14.9347C73.6771 14.9347 73.7163 14.966 73.7283 15.0043C73.7403 15.0426 73.7867 15.114 73.8315 15.1629C73.8762 15.2118 73.9046 15.2653 73.8945 15.2817C73.8845 15.2982 73.9076 15.3117 73.946 15.3117C73.9843 15.3117 74.0156 15.3282 74.0156 15.3484C74.0156 15.4026 74.1045 15.4831 74.1645 15.4831C74.1956 15.4831 74.2092 15.5027 74.1981 15.5319C74.1876 15.5595 74.209 15.5966 74.2476 15.6175C74.2849 15.6377 74.3204 15.6891 74.3263 15.7315C74.3334 15.782 74.3605 15.8087 74.4044 15.8088C74.4438 15.8088 74.4768 15.8361 74.4842 15.8749C74.5006 15.9613 74.5813 16.0416 74.6246 16.0145C74.6441 16.0023 74.6587 16.0307 74.6587 16.0809C74.6587 16.1505 74.6754 16.1686 74.7395 16.1686C74.784 16.1686 74.8197 16.1879 74.8188 16.2115C74.8147 16.3231 74.8315 16.3736 74.8702 16.3657C74.894 16.3609 74.9172 16.3984 74.9232 16.4514C74.9306 16.5158 74.9535 16.5457 74.9957 16.5457C75.0325 16.5457 75.0656 16.5786 75.0777 16.6273C75.0888 16.6721 75.1286 16.717 75.166 16.7269C75.2034 16.7368 75.2341 16.7735 75.2341 16.8085C75.2341 16.8435 75.2682 16.8874 75.31 16.906C75.3518 16.9246 75.3917 16.9705 75.3986 17.0079C75.4056 17.0453 75.4423 17.1032 75.4802 17.1364C75.518 17.1697 75.5353 17.197 75.5185 17.197C75.5016 17.1971 75.5374 17.2277 75.5979 17.2651C75.6634 17.3055 75.7079 17.3609 75.7079 17.4021C75.7079 17.4402 75.7303 17.4711 75.758 17.4711C75.7856 17.4711 75.8177 17.5097 75.8294 17.5568C75.841 17.6039 75.8715 17.6425 75.897 17.6425C75.9226 17.6425 75.9537 17.6849 75.9662 17.7368C75.9788 17.7886 76.0171 17.8678 76.0515 17.9128C76.0859 17.9577 76.114 18.0099 76.114 18.0287C76.114 18.0692 76.2464 18.1909 76.2904 18.1909C76.3073 18.1909 76.3113 18.207 76.2993 18.2267C76.2688 18.2765 76.3464 18.3623 76.4219 18.3623C76.4736 18.3623 76.481 18.3805 76.4643 18.4651C76.4469 18.5536 76.4541 18.568 76.5159 18.568C76.5617 18.568 76.5881 18.5898 76.5884 18.6279C76.5888 18.6609 76.6268 18.7243 76.673 18.7687C76.7193 18.813 76.7571 18.8686 76.7571 18.8922C76.7571 18.9157 76.794 18.9753 76.8391 19.0246C76.9251 19.1186 76.9789 19.2415 76.9654 19.3129C76.9607 19.3382 76.9785 19.347 77.0096 19.335C77.0462 19.3207 77.0617 19.3359 77.0617 19.3858C77.0617 19.4249 77.096 19.4767 77.1378 19.5009C77.1797 19.5251 77.2146 19.5603 77.2153 19.5791C77.2172 19.6288 77.3449 19.8856 77.3743 19.8989C77.3881 19.9051 77.43 19.9805 77.4676 20.0664C77.5051 20.1523 77.5662 20.2493 77.6033 20.2819C77.6405 20.3146 77.6709 20.3664 77.6709 20.3972C77.6709 20.428 77.6861 20.4532 77.7047 20.4532C77.7234 20.4532 77.7386 20.4763 77.7386 20.5046C77.7386 20.5329 77.7538 20.556 77.7724 20.556C77.791 20.556 77.8063 20.5791 77.8063 20.6074C77.8063 20.6357 77.821 20.6588 77.8391 20.6588C77.8571 20.6588 77.8636 20.6806 77.8535 20.7072C77.8424 20.7364 77.8636 20.7646 77.9074 20.7787C77.9668 20.7978 77.9758 20.8195 77.9579 20.9017C77.9445 20.9639 77.9501 21.0016 77.9728 21.0016C78.0524 21.0016 78.1515 21.1473 78.1515 21.2644C78.1515 21.3297 78.16 21.3746 78.1704 21.3641C78.2045 21.3295 78.2765 21.4168 78.2568 21.4689C78.2457 21.4982 78.278 21.5627 78.3329 21.6207C78.3853 21.6762 78.4335 21.7562 78.4398 21.7986C78.4461 21.841 78.4652 21.8805 78.4823 21.8864C78.4993 21.8924 78.5038 21.922 78.4923 21.9524C78.4772 21.9924 78.486 22.0019 78.5242 21.987C78.564 21.9715 78.5727 21.9833 78.5595 22.0346C78.548 22.079 78.5665 22.1202 78.6126 22.1529C78.6531 22.1817 78.6752 22.2247 78.6643 22.2536C78.6538 22.2814 78.663 22.3041 78.6849 22.3041C78.7093 22.3041 78.7163 22.3307 78.7032 22.3727C78.6908 22.412 78.6971 22.4412 78.7178 22.4412C78.7377 22.4412 78.7539 22.4633 78.7539 22.4903C78.7539 22.5173 78.785 22.5494 78.823 22.5616C78.8725 22.5775 78.8863 22.6026 78.8715 22.6496C78.86 22.6865 78.8668 22.7154 78.887 22.7154C78.9069 22.7154 78.9232 22.7522 78.9232 22.7971C78.9232 22.852 78.9472 22.8852 78.9964 22.8982C79.0574 22.9144 79.0625 22.9263 79.0273 22.9693C78.9802 23.0268 79.0048 23.0925 79.0735 23.0925C79.0982 23.0925 79.1263 23.1233 79.136 23.161C79.1458 23.1987 79.1399 23.2296 79.123 23.2296C79.1062 23.2296 79.0924 23.245 79.0924 23.2638C79.0924 23.2827 79.1169 23.2981 79.1468 23.2981C79.1885 23.2981 79.1961 23.319 79.1793 23.3867C79.1665 23.4382 79.1705 23.467 79.1888 23.4555C79.2237 23.4337 79.3363 23.6499 79.3255 23.7179C79.3141 23.789 79.3671 23.8808 79.4195 23.8808C79.4466 23.8808 79.4611 23.8932 79.4518 23.9084C79.4235 23.9548 79.4983 24.2384 79.5492 24.2777C79.5756 24.2981 79.6035 24.3724 79.6111 24.4429C79.6188 24.5134 79.6423 24.5886 79.6633 24.6099C79.6844 24.6312 79.7016 24.6764 79.7016 24.7103C79.7016 24.7442 79.7168 24.772 79.7354 24.772C79.7541 24.772 79.7693 24.8019 79.7693 24.8385C79.7693 24.8751 79.7847 24.9148 79.8037 24.9266C79.8226 24.9384 79.8303 24.9609 79.8208 24.9764C79.8113 24.992 79.8279 25.0142 79.8576 25.0258C79.8898 25.0383 79.9035 25.0685 79.8914 25.1005C79.8802 25.13 79.8949 25.1784 79.9242 25.208C79.9592 25.2434 79.965 25.2695 79.9414 25.2843C79.9016 25.3093 79.9664 25.5261 80.0136 25.5261C80.0282 25.5261 80.04 25.5492 80.04 25.5775C80.04 25.6058 80.0554 25.6289 80.0743 25.6289C80.0955 25.6289 80.1 25.6831 80.0861 25.7713C80.0697 25.8746 80.0743 25.9069 80.1026 25.8892C80.1273 25.8737 80.1416 25.8913 80.1416 25.9374C80.1416 25.9773 80.1568 26.0005 80.1754 25.9888C80.194 25.9772 80.2093 25.9981 80.2093 26.0354C80.2093 26.0726 80.2267 26.109 80.2479 26.1161C80.2769 26.1259 80.2767 26.1481 80.2472 26.2039C80.2144 26.2658 80.2188 26.2898 80.2725 26.3442C80.3099 26.382 80.3475 26.4853 80.3615 26.588C80.3748 26.686 80.4068 26.8073 80.4326 26.8574C80.4585 26.9075 80.4802 26.9717 80.4809 27C80.4816 27.0282 80.5045 27.0812 80.5317 27.1177C80.5752 27.1759 80.575 27.1935 80.5298 27.2634C80.482 27.3373 80.4831 27.3427 80.5469 27.3427C80.6045 27.3427 80.6154 27.365 80.6154 27.4835C80.6154 27.5861 80.6275 27.6196 80.6601 27.6069C80.6943 27.5936 80.7059 27.6464 80.7093 27.8316C80.7117 27.9647 80.727 28.0827 80.7432 28.0938C80.7885 28.1248 80.8263 28.237 80.8423 28.3882C80.8503 28.4636 80.8689 28.5297 80.8835 28.535C80.8982 28.5404 80.9035 28.5804 80.8952 28.6239C80.8868 28.6686 80.9039 28.7268 80.9344 28.7578C80.9705 28.7943 80.9904 28.8819 80.9942 29.0203C80.9973 29.1345 81.0118 29.2279 81.0266 29.2279C81.0412 29.2279 81.0445 29.2511 81.0338 29.2794C81.0231 29.3076 81.0321 29.3308 81.0538 29.3308C81.0755 29.3308 81.0838 29.3462 81.0723 29.365C81.0608 29.3839 81.067 29.3993 81.0862 29.3993C81.1053 29.3993 81.1121 29.4227 81.1013 29.4512C81.0905 29.4797 81.1005 29.526 81.1235 29.554C81.1503 29.5867 81.1597 29.6728 81.1499 29.7936C81.1371 29.949 81.1438 29.9821 81.188 29.9825C81.2239 29.9829 81.2286 29.9914 81.2023 30.0083C81.1585 30.0366 81.1813 30.222 81.2286 30.222C81.245 30.222 81.2585 30.2666 81.2585 30.3211C81.2585 30.3833 81.2802 30.4287 81.3167 30.4429C81.3526 30.4569 81.3614 30.4747 81.3397 30.4895C81.3009 30.5156 81.2913 30.8732 81.3294 30.8732C81.3542 30.8732 81.3845 31.0412 81.4158 31.3531C81.4262 31.4568 81.4522 31.5529 81.4735 31.5668C81.4994 31.5836 81.5001 31.5921 81.4757 31.5925C81.4536 31.5928 81.4399 31.6681 81.4412 31.7815C81.4423 31.8852 81.4568 31.9701 81.4733 31.9701C81.4898 31.9701 81.4954 32.0117 81.4858 32.0626C81.4762 32.1135 81.4841 32.1945 81.5034 32.2425C81.5228 32.2906 81.5364 32.3669 81.5339 32.4121C81.5313 32.4573 81.5465 32.5155 81.5678 32.5414C81.5989 32.5793 81.5939 32.5845 81.5425 32.5678C81.4824 32.5483 81.4826 32.5509 81.5461 32.6099C81.5846 32.6455 81.6111 32.7098 81.6074 32.7584C81.5778 33.1531 81.5767 33.2383 81.6011 33.2383C81.6165 33.2383 81.6139 33.2787 81.5954 33.3282C81.5714 33.3919 81.5733 33.4322 81.6018 33.467C81.6247 33.495 81.6413 33.6184 81.6404 33.7542C81.6395 33.8852 81.6517 33.9924 81.6675 33.9924C81.6834 33.9924 81.6875 34.0155 81.6769 34.0438C81.6661 34.0721 81.6738 34.0952 81.694 34.0952C81.7197 34.0952 81.7204 34.1225 81.6963 34.1866C81.6774 34.2369 81.674 34.287 81.6887 34.298C81.7262 34.3261 81.731 34.438 81.6947 34.438C81.6488 34.438 81.6611 34.6158 81.7138 34.7121C81.7466 34.7723 81.7501 34.8104 81.7254 34.8406C81.706 34.8642 81.7035 34.8836 81.7197 34.8836C81.7638 34.8836 81.7615 35.8773 81.7174 35.8786C81.6977 35.8792 81.709 35.8958 81.7426 35.9157C81.7889 35.943 81.7947 35.9627 81.7662 35.9974C81.7385 36.0313 81.7433 36.094 81.7849 36.2389C81.8507 36.4682 81.8326 36.8346 81.7309 37.3343C81.6039 37.9574 81.4082 38.4109 81.0639 38.8791C80.777 39.2693 80.0778 39.9816 79.8539 40.1118C79.7608 40.166 79.6771 40.2187 79.6677 40.229C79.6584 40.2394 79.5899 40.2766 79.5154 40.3118C79.441 40.3469 79.3378 40.3982 79.2862 40.4256C79.2346 40.453 79.1513 40.483 79.1011 40.4922C79.0509 40.5014 78.9942 40.5217 78.975 40.5373C78.9037 40.5952 78.3538 40.7179 78.0263 40.7489C77.8221 40.7683 72.2082 40.7803 63.8791 40.7792C49.9797 40.7773 49.3994 40.7818 48.2427 40.9004C47.353 40.9916 45.9341 41.2293 45.484 41.3626C45.4191 41.3818 45.2654 41.4122 45.1427 41.4302C44.6786 41.4982 42.6965 42.1366 42.2691 42.3559C42.2039 42.3893 42.0059 42.4672 41.8291 42.5289C41.4204 42.6717 39.2294 43.7606 39.0625 43.9039C39.0298 43.9321 38.8072 44.0755 38.5679 44.2228C38.3285 44.3701 38.0696 44.5387 37.9925 44.5975C37.9154 44.6562 37.8142 44.7215 37.7677 44.7425C37.6755 44.7841 36.8933 45.3554 36.8375 45.422C36.7951 45.4725 36.4115 45.7701 36.2277 45.8949C36.1533 45.9455 35.9934 46.0817 35.8724 46.1976C35.7514 46.3134 35.4929 46.5491 35.2981 46.7214C35.1032 46.8936 34.791 47.1965 34.6042 47.3945C34.4175 47.5924 34.1311 47.8904 33.9679 48.0566C33.8046 48.2228 33.645 48.4002 33.6133 48.4508C33.5816 48.5013 33.4258 48.6952 33.2672 48.8816C32.8656 49.3532 32.5729 49.7291 32.508 49.8562C32.4777 49.9153 32.387 50.0458 32.3064 50.1461C32.0886 50.417 31.5876 51.1877 31.2877 51.7133C31.1425 51.9678 30.9663 52.2696 30.8961 52.384C30.7285 52.6572 30.4551 53.2118 30.1538 53.8898C30.0197 54.1915 29.8723 54.5203 29.8262 54.6205C29.6776 54.9433 29.3065 55.9303 29.2391 56.182C29.2031 56.3164 29.1264 56.5728 29.0686 56.7519C28.6783 57.9612 28.303 59.7533 28.1928 60.9337C28.0992 61.9365 28.0883 63.3736 28.0707 76.9236C28.053 90.6534 28.0569 91.4005 28.1549 93.0335C28.2327 94.3282 28.6018 96.193 29.0674 97.6437C29.1612 97.9359 29.2381 98.1945 29.2384 98.2183C29.2389 98.2712 29.6752 99.4638 29.7116 99.5118C29.7259 99.5306 29.8018 99.7003 29.8803 99.8888C30.0134 100.209 30.0805 100.357 30.4553 101.157C30.5347 101.327 30.7695 101.764 30.9769 102.128C31.1844 102.493 31.3753 102.832 31.4013 102.882C31.5035 103.08 32.2554 104.194 32.6462 104.727C32.8212 104.965 33.571 105.873 33.8033 106.127C34.5614 106.958 36.025 108.407 36.1059 108.407C36.1197 108.407 36.1629 108.441 36.2019 108.484C36.2409 108.526 36.3208 108.599 36.3793 108.646C36.4379 108.694 36.5223 108.767 36.5668 108.809C36.6113 108.852 36.662 108.886 36.6796 108.886C36.6971 108.886 36.7835 108.955 36.8717 109.04C36.9599 109.124 37.0591 109.202 37.0921 109.212C37.1252 109.223 37.1601 109.253 37.1698 109.278C37.1794 109.304 37.2303 109.346 37.2829 109.373C37.4737 109.471 37.5464 109.518 37.6805 109.632C37.7083 109.655 37.7511 109.675 37.7757 109.675C37.8003 109.675 37.8428 109.707 37.8702 109.745C37.8976 109.784 37.9733 109.849 38.0384 109.889C38.1036 109.93 38.1815 109.99 38.2116 110.024C38.2418 110.058 38.2842 110.086 38.3059 110.086C38.3418 110.086 38.5048 110.179 38.5461 110.222C38.5945 110.274 39.0502 110.532 39.0924 110.532C39.1142 110.532 39.1812 110.57 39.2412 110.616C39.3013 110.662 39.417 110.727 39.4982 110.76C39.5795 110.792 39.7055 110.862 39.7781 110.915C39.8507 110.968 39.9307 111.012 39.9558 111.012C39.9809 111.012 40.0015 111.024 40.0015 111.04C40.0015 111.056 40.0205 111.069 40.0438 111.07C40.067 111.07 40.2155 111.133 40.3737 111.209C40.7937 111.41 41.0123 111.507 41.2029 111.576C41.296 111.61 41.6159 111.742 41.9137 111.869C42.6769 112.196 43.8916 112.635 44.2321 112.707C44.2972 112.721 44.6856 112.814 45.0951 112.915C46.3042 113.212 47.2163 113.369 48.5304 113.504C49.0886 113.562 49.9804 113.565 64.0145 113.565C80.0005 113.565 79.1163 113.575 80.48 113.391C81.3007 113.28 82.034 113.137 82.8661 112.926C83.2384 112.832 83.6405 112.733 83.7598 112.706C83.9993 112.653 85.0482 112.296 85.4722 112.123C86.81 111.578 87.4781 111.27 88.1459 110.89C88.3321 110.784 88.5757 110.649 88.6874 110.591C89.0052 110.424 89.7799 109.939 90.0412 109.743C90.1715 109.645 90.368 109.512 90.4777 109.447C90.6714 109.332 91.0556 109.052 91.1243 108.975C91.163 108.932 91.7338 108.473 91.9365 108.322C92.4033 107.974 94.0615 106.305 94.5569 105.685C94.6579 105.559 94.8614 105.313 95.0093 105.14C95.1571 104.967 95.3577 104.701 95.4551 104.55C95.5525 104.4 95.7125 104.169 95.8105 104.038C96.4452 103.189 97.2607 101.754 97.8369 100.472C98.3874 99.2461 98.6055 98.7045 98.7616 98.175C98.8172 97.9865 98.8837 97.7628 98.9094 97.678C99.1009 97.0452 99.2264 96.6021 99.2636 96.4269C99.2796 96.3515 99.3152 96.2204 99.3428 96.1356C99.3703 96.0507 99.4254 95.8039 99.4653 95.5871C99.5051 95.3703 99.5521 95.1313 99.5697 95.0558C99.6093 94.8859 99.6937 94.2873 99.7666 93.6588L99.7934 93.4272L99.3249 92.2363C99.0672 91.5814 98.8126 90.9144 98.7591 90.7542C98.7057 90.5939 98.5978 90.3008 98.5195 90.1029C98.4412 89.905 98.2807 89.4962 98.163 89.1946C98.0452 88.8929 97.8869 88.4932 97.811 88.3063C97.7353 88.1194 97.6733 87.946 97.6733 87.921C97.6733 87.896 97.435 87.27 97.1439 86.5299C96.8527 85.7898 96.6001 85.1302 96.5825 85.0643C96.5649 84.9983 96.3158 84.3474 96.0289 83.6179C95.7419 82.8883 95.5072 82.2763 95.5072 82.2578C95.5072 82.225 95.2163 81.4658 94.7963 80.4027C94.5436 79.7628 94.4532 79.5206 94.374 79.2716C94.3411 79.1679 94.2785 78.9982 94.235 78.8945C94.0302 78.407 93.6822 77.4783 93.6959 77.4559C93.7043 77.4421 93.784 77.4034 93.8731 77.3698C94.3348 77.1959 95.3903 76.5695 95.9117 76.1599C96.3098 75.8473 97.0622 75.0744 97.3706 74.6612C97.815 74.066 98.3069 73.1882 98.5531 72.5511C98.6984 72.175 98.9549 71.1395 99.0322 70.6167C99.1012 70.1498 99.0908 68.6256 99.0155 68.1831C98.9629 67.874 98.8143 67.2037 98.7192 66.8463C98.5758 66.3074 98.1116 65.3514 97.6541 64.6526C96.8352 63.402 95.5876 62.348 94.1026 61.6522C93.6976 61.4624 92.9853 61.2209 92.6981 61.1761C92.5584 61.1543 92.3528 61.1152 92.2412 61.0894C91.8304 60.9942 91.3478 60.9537 90.6504 60.9559C89.8004 60.9587 89.3356 61.0186 88.3997 61.2459C87.593 61.4418 86.2602 62.1264 85.514 62.7283C84.7979 63.3058 83.8459 64.3672 83.5729 64.8926C83.5141 65.0057 83.4031 65.2062 83.3263 65.3382C82.9429 65.9968 82.551 67.0373 82.4742 67.6004C82.4588 67.7135 82.4228 67.9447 82.3942 68.1142C82.2251 69.1154 82.2658 70.2701 82.5142 71.5251C82.5622 71.7671 82.7877 72.4476 82.9373 72.8016C83.1362 73.2722 83.6249 74.1294 83.929 74.5409C84.4821 75.2895 85.4559 76.2121 86.1218 76.6186C86.6786 76.9583 87.0103 77.1452 87.2152 77.2346C87.3362 77.2874 87.4409 77.3348 87.4478 77.3399C87.4548 77.345 87.3223 77.7025 87.1534 78.1345C86.9846 78.5664 86.836 78.9619 86.8232 79.0133C86.8105 79.0647 86.7321 79.2788 86.6491 79.4891C86.5661 79.6994 86.4143 80.0873 86.3117 80.3513C86.2092 80.6152 86.0913 80.9083 86.0499 81.0025C85.9851 81.1498 85.8137 81.6199 85.7 81.9623C85.6811 82.0188 85.4573 82.5895 85.2024 83.2305C84.9476 83.8714 84.6886 84.5506 84.627 84.7397C84.5653 84.9288 84.4834 85.1525 84.4449 85.2367C84.335 85.4771 83.8858 86.6355 83.3622 88.0292C83.2488 88.3308 83.0193 88.92 82.8522 89.3384C82.6851 89.7569 82.5294 90.1656 82.5062 90.2468C82.483 90.3279 82.2457 90.9478 81.9788 91.6244C81.7119 92.301 81.4477 92.9919 81.3917 93.1598C81.3357 93.3278 81.2257 93.5737 81.1473 93.7064C80.9873 93.9768 80.4302 94.5569 80.1407 94.7543C79.8457 94.9555 79.4385 95.1297 79.0416 95.2245C78.1855 95.4289 79.2525 95.4153 64.065 95.4155C48.9081 95.4158 49.7559 95.4262 48.9081 95.2285C48.4699 95.1263 48.3328 95.0787 48.0228 94.9211C47.609 94.7108 46.9976 94.1918 46.7603 93.8493C46.4361 93.3815 46.1286 92.5148 46.0191 91.7597C45.955 91.3184 45.9566 63.2512 46.0207 62.716C46.1004 62.0505 46.2586 61.4958 46.5263 60.9433C46.7682 60.4439 46.9432 60.2317 47.4304 59.8462C47.9379 59.4447 48.4456 59.2109 49.1862 59.0377C49.495 58.9654 49.4951 58.9654 58.452 58.947L67.4089 58.9285L67.8305 58.0878C68.0623 57.6254 68.2668 57.2167 68.285 57.1795C68.4194 56.9044 68.4941 56.7713 68.8033 56.2549C68.9953 55.9344 69.195 55.6182 69.2472 55.5523C69.2993 55.4863 69.365 55.3783 69.3932 55.3123C69.4495 55.1804 69.68 54.8446 70.1302 54.2387C70.2922 54.0208 70.4631 53.7809 70.51 53.7056C70.5569 53.6303 70.6244 53.5407 70.6599 53.5065C70.6955 53.4723 70.8357 53.3054 70.9716 53.1358C72.1934 51.6096 73.8754 49.9777 75.4673 48.7739C76.1686 48.2436 76.7318 47.8607 77.6201 47.3102C78.2056 46.9474 78.156 46.9757 78.6186 46.7412C78.814 46.6422 79.0338 46.523 79.107 46.4764C79.2214 46.4036 79.8555 46.0897 80.2939 45.8889C80.8663 45.6267 82.5775 44.9681 83.0566 44.8256C85.1898 44.1912 86.9407 43.8564 89.009 43.6876C89.7734 43.6252 91.782 43.6352 92.5965 43.7054C94.2247 43.8457 95.5255 44.0713 97.0133 44.4712C97.4042 44.5763 97.8078 44.6812 97.9102 44.7043C98.1614 44.761 98.6321 44.916 99.264 45.1502C99.5525 45.2571 99.8134 45.3521 99.8437 45.3613C99.894 45.3765 99.901 45.2032 99.9235 43.3785C99.9561 40.7348 99.928 35.3347 99.8779 34.6093C99.749 32.7444 99.4352 31.0639 98.921 29.485C98.8658 29.3153 98.7918 29.0685 98.7566 28.9364C98.6632 28.5856 98.2902 27.6362 97.9647 26.9208C97.8086 26.5779 97.6716 26.2665 97.6601 26.2288C97.6267 26.1194 97.0978 25.1346 96.8409 24.7035C96.7117 24.4867 96.589 24.2702 96.5683 24.2224C96.5157 24.1012 95.7238 22.9265 95.6102 22.8011C95.5589 22.7446 95.5088 22.6744 95.4989 22.6453C95.4727 22.5686 94.9894 21.9478 94.753 21.6871C94.6418 21.5646 94.4897 21.3809 94.4148 21.279C94.2349 21.0338 93.1166 19.8645 92.8179 19.6091C92.6883 19.4984 92.4599 19.2916 92.3102 19.1497C91.9906 18.8467 91.5872 18.512 91.3918 18.3877C91.3156 18.3393 91.2014 18.2516 91.138 18.1928C90.941 18.0103 90.2706 17.5395 89.652 17.1493C89.3263 16.9438 88.9683 16.7155 88.8567 16.6419C88.6126 16.4812 86.7608 15.5481 86.2844 15.3459C86.0983 15.2669 85.8241 15.1594 85.6752 15.1071C85.5263 15.0547 85.1608 14.9244 84.8629 14.8175C83.8555 14.4557 82.2477 14.0092 81.9522 14.0092C81.8963 14.0092 81.6907 13.9782 81.4953 13.9402C80.9847 13.8411 80.0077 13.7105 79.2894 13.6452C78.7886 13.5997 78.072 13.5859 75.564 13.573C72.6641 13.5581 72.4588 13.5609 72.4588 13.615ZM79.7693 25.0805C79.7693 25.0993 79.7845 25.1148 79.8031 25.1148C79.8217 25.1148 79.837 25.0993 79.837 25.0805C79.837 25.0616 79.8217 25.0462 79.8031 25.0462C79.7845 25.0462 79.7693 25.0616 79.7693 25.0805Z" fill="#0A84DC"/>
</svg>
